# MagicaVoxel @ Ephtracy

# group
o 

# material
mtllib sand vacuum.mtl
usemtl palette

# normals
vn -1 0 0
vn 1 0 0
vn 0 0 1
vn 0 0 -1
vn 0 -1 0
vn 0 1 0

# texcoords
vt 0.00195313 0.5
vt 0.00585938 0.5
vt 0.00976563 0.5
vt 0.0332031 0.5
vt 0.970703 0.5

# verts
v -0.8 0 0.8
v -0.8 0 -0.3
v -0.8 0 -0.8
v -0.8 0.1 -0.3
v -0.8 0.1 -0.8
v -0.8 0.3 0.8
v -0.8 0.3 0.5
v -0.8 0.3 0.4
v -0.8 0.3 0.3
v -0.8 0.3 0.2
v -0.8 0.3 -0.3
v -0.8 1.2 0.5
v -0.8 1.2 0.4
v -0.8 1.2 0.3
v -0.8 1.2 0.2
v -0.7 0.1 -0.4
v -0.7 0.1 -0.7
v -0.7 0.3 0.7
v -0.7 0.3 0.5
v -0.7 0.3 0.4
v -0.7 0.3 0.3
v -0.7 0.3 0.2
v -0.7 0.3 0
v -0.7 0.3 -0.4
v -0.7 0.3 -0.7
v -0.7 1.2 0.5
v -0.7 1.2 0.4
v -0.7 1.2 0.3
v -0.7 1.2 0.2
v -0.7 1.3 0.7
v -0.7 1.3 0.6
v -0.7 1.3 0.1
v -0.7 1.3 0
v -0.7 1.4 0.6
v -0.7 1.4 0.1
v -0.6 0.3 0.8
v -0.6 0.3 0.7
v -0.6 0.3 -0.1
v -0.6 0.3 -0.2
v -0.6 0.9 0.8
v -0.6 0.9 0.7
v -0.6 0.9 0
v -0.6 0.9 -0.1
v -0.6 1 0
v -0.6 1 -0.2
v -0.5 0.1 -0.4
v -0.5 0.1 -0.5
v -0.5 0.1 -0.6
v -0.5 0.1 -0.7
v -0.5 0.2 -0.5
v -0.5 0.2 -0.6
v -0.5 0.3 -0.4
v -0.5 0.3 -0.7
v -0.4 0.3 0.8
v -0.4 0.3 0.7
v -0.4 0.3 -0.1
v -0.4 0.3 -0.2
v -0.4 0.7 0.8
v -0.4 0.7 0.7
v -0.4 0.9 0
v -0.4 0.9 -0.1
v -0.4 1 0
v -0.4 1 -0.2
v 0.1 0.2 0.6
v 0.1 0.2 0.1
v 0.1 0.3 0.6
v 0.1 0.3 0.1
v 0.2 0.3 0.5
v 0.2 0.3 0.2
v 0.2 0.9 0.5
v 0.2 0.9 0.2
v 0.6 0.1 -0.4
v 0.6 0.1 -0.5
v 0.6 0.1 -0.6
v 0.6 0.1 -0.7
v 0.6 0.2 -0.5
v 0.6 0.2 -0.6
v 0.6 0.3 -0.4
v 0.6 0.3 -0.7
v -0.6 0.1 -0.4
v -0.6 0.1 -0.5
v -0.6 0.1 -0.6
v -0.6 0.1 -0.7
v -0.6 0.2 -0.5
v -0.6 0.2 -0.6
v -0.6 0.3 -0.4
v -0.6 0.3 -0.7
v -0.5 0.3 0.8
v -0.5 0.3 0.7
v -0.5 0.3 -0.1
v -0.5 0.3 -0.2
v -0.5 0.9 0.8
v -0.5 0.9 0.7
v -0.5 0.9 0
v -0.5 0.9 -0.1
v -0.5 1 0
v -0.5 1 -0.2
v -0.3 0.3 0.8
v -0.3 0.3 0.7
v -0.3 0.3 -0.1
v -0.3 0.3 -0.2
v -0.3 0.7 0.8
v -0.3 0.7 0.7
v -0.3 0.9 0
v -0.3 0.9 -0.1
v -0.3 1 0
v -0.3 1 -0.2
v -0.2 0.3 0.7
v -0.2 0.3 0
v -0.2 0.9 0.5
v -0.2 0.9 0.2
v -0.2 1.2 0.5
v -0.2 1.2 0.2
v -0.2 1.3 0.7
v -0.2 1.3 0.6
v -0.2 1.3 0.1
v -0.2 1.3 0
v -0.2 1.4 0.6
v -0.2 1.4 0.1
v -0.1 0 0.8
v -0.1 0 -0.3
v -0.1 0.1 -0.3
v -0.1 0.3 0.8
v -0.1 0.3 -0.3
v 0.4 1.1 0.5
v 0.4 1.1 0.2
v 0.4 1.2 0.5
v 0.4 1.2 0.2
v 0.5 0.1 -0.4
v 0.5 0.1 -0.5
v 0.5 0.1 -0.6
v 0.5 0.1 -0.7
v 0.5 0.2 -0.5
v 0.5 0.2 -0.6
v 0.5 0.3 0.5
v 0.5 0.3 0.2
v 0.5 0.3 -0.4
v 0.5 0.3 -0.7
v 0.5 1.1 0.5
v 0.5 1.1 0.2
v 0.6 0.2 0.6
v 0.6 0.2 0.1
v 0.6 0.3 0.6
v 0.6 0.3 0.1
v 0.7 0.1 -0.4
v 0.7 0.1 -0.7
v 0.7 0.3 -0.4
v 0.7 0.3 -0.7
v 0.8 0 -0.3
v 0.8 0 -0.8
v 0.8 0.1 -0.3
v 0.8 0.1 -0.8
v -0.8 0 0.8
v -0.8 0.3 0.8
v -0.6 0.3 0.8
v -0.6 0.9 0.8
v -0.5 0.3 0.8
v -0.5 0.9 0.8
v -0.4 0.3 0.8
v -0.4 0.7 0.8
v -0.3 0.3 0.8
v -0.3 0.7 0.8
v -0.1 0 0.8
v -0.1 0.3 0.8
v -0.7 0.3 0.7
v -0.7 1.3 0.7
v -0.6 0.3 0.7
v -0.6 0.9 0.7
v -0.5 0.3 0.7
v -0.5 0.9 0.7
v -0.4 0.3 0.7
v -0.4 0.7 0.7
v -0.3 0.3 0.7
v -0.3 0.7 0.7
v -0.2 0.3 0.7
v -0.2 1.3 0.7
v -0.7 1.3 0.6
v -0.7 1.4 0.6
v -0.2 1.3 0.6
v -0.2 1.4 0.6
v 0.1 0.2 0.6
v 0.1 0.3 0.6
v 0.6 0.2 0.6
v 0.6 0.3 0.6
v -0.8 0.3 0.5
v -0.8 1.2 0.5
v -0.7 0.3 0.5
v -0.7 1.2 0.5
v -0.2 0.9 0.5
v -0.2 1.2 0.5
v 0.2 0.3 0.5
v 0.2 0.9 0.5
v 0.4 1.1 0.5
v 0.4 1.2 0.5
v 0.5 0.3 0.5
v 0.5 1.1 0.5
v -0.8 0.3 0.3
v -0.8 1.2 0.3
v -0.7 0.3 0.3
v -0.7 1.2 0.3
v -0.6 0.3 -0.1
v -0.6 0.9 -0.1
v -0.5 0.3 -0.1
v -0.5 0.9 -0.1
v -0.4 0.3 -0.1
v -0.4 0.9 -0.1
v -0.3 0.3 -0.1
v -0.3 0.9 -0.1
v -0.1 0 -0.3
v -0.1 0.1 -0.3
v 0.8 0 -0.3
v 0.8 0.1 -0.3
v -0.7 0.1 -0.4
v -0.7 0.3 -0.4
v -0.6 0.1 -0.4
v -0.6 0.3 -0.4
v -0.5 0.1 -0.4
v -0.5 0.3 -0.4
v 0.5 0.1 -0.4
v 0.5 0.3 -0.4
v 0.6 0.1 -0.4
v 0.6 0.3 -0.4
v 0.7 0.1 -0.4
v 0.7 0.3 -0.4
v -0.6 0.1 -0.5
v -0.6 0.2 -0.5
v -0.5 0.1 -0.5
v -0.5 0.2 -0.5
v 0.5 0.1 -0.5
v 0.5 0.2 -0.5
v 0.6 0.1 -0.5
v 0.6 0.2 -0.5
v -0.8 0.3 0.4
v -0.8 1.2 0.4
v -0.7 0.3 0.4
v -0.7 1.2 0.4
v -0.8 0.3 0.2
v -0.8 1.2 0.2
v -0.7 0.3 0.2
v -0.7 1.2 0.2
v -0.2 0.9 0.2
v -0.2 1.2 0.2
v 0.2 0.3 0.2
v 0.2 0.9 0.2
v 0.4 1.1 0.2
v 0.4 1.2 0.2
v 0.5 0.3 0.2
v 0.5 1.1 0.2
v -0.7 1.3 0.1
v -0.7 1.4 0.1
v -0.2 1.3 0.1
v -0.2 1.4 0.1
v 0.1 0.2 0.1
v 0.1 0.3 0.1
v 0.6 0.2 0.1
v 0.6 0.3 0.1
v -0.7 0.3 0
v -0.7 1.3 0
v -0.6 0.9 0
v -0.6 1 0
v -0.5 0.9 0
v -0.5 1 0
v -0.4 0.9 0
v -0.4 1 0
v -0.3 0.9 0
v -0.3 1 0
v -0.2 0.3 0
v -0.2 1.3 0
v -0.6 0.3 -0.2
v -0.6 1 -0.2
v -0.5 0.3 -0.2
v -0.5 1 -0.2
v -0.4 0.3 -0.2
v -0.4 1 -0.2
v -0.3 0.3 -0.2
v -0.3 1 -0.2
v -0.8 0.1 -0.3
v -0.8 0.3 -0.3
v -0.1 0.1 -0.3
v -0.1 0.3 -0.3
v -0.6 0.1 -0.6
v -0.6 0.2 -0.6
v -0.5 0.1 -0.6
v -0.5 0.2 -0.6
v 0.5 0.1 -0.6
v 0.5 0.2 -0.6
v 0.6 0.1 -0.6
v 0.6 0.2 -0.6
v -0.7 0.1 -0.7
v -0.7 0.3 -0.7
v -0.6 0.1 -0.7
v -0.6 0.3 -0.7
v -0.5 0.1 -0.7
v -0.5 0.3 -0.7
v 0.5 0.1 -0.7
v 0.5 0.3 -0.7
v 0.6 0.1 -0.7
v 0.6 0.3 -0.7
v 0.7 0.1 -0.7
v 0.7 0.3 -0.7
v -0.8 0 -0.8
v -0.8 0.1 -0.8
v 0.8 0 -0.8
v 0.8 0.1 -0.8
v -0.8 0 0.8
v -0.1 0 0.8
v -0.8 0 -0.3
v -0.1 0 -0.3
v 0.8 0 -0.3
v -0.8 0 -0.8
v 0.8 0 -0.8
v 0.1 0.2 0.6
v 0.6 0.2 0.6
v 0.1 0.2 0.1
v 0.6 0.2 0.1
v -0.2 0.9 0.5
v 0.2 0.9 0.5
v -0.2 0.9 0.2
v 0.2 0.9 0.2
v -0.6 0.9 0
v -0.5 0.9 0
v -0.4 0.9 0
v -0.3 0.9 0
v -0.6 0.9 -0.1
v -0.5 0.9 -0.1
v -0.4 0.9 -0.1
v -0.3 0.9 -0.1
v -0.8 0.1 -0.3
v -0.1 0.1 -0.3
v 0.8 0.1 -0.3
v -0.7 0.1 -0.4
v -0.6 0.1 -0.4
v -0.5 0.1 -0.4
v 0.5 0.1 -0.4
v 0.6 0.1 -0.4
v 0.7 0.1 -0.4
v -0.6 0.1 -0.5
v -0.5 0.1 -0.5
v 0.5 0.1 -0.5
v 0.6 0.1 -0.5
v -0.6 0.1 -0.6
v -0.5 0.1 -0.6
v 0.5 0.1 -0.6
v 0.6 0.1 -0.6
v -0.7 0.1 -0.7
v -0.6 0.1 -0.7
v -0.5 0.1 -0.7
v 0.5 0.1 -0.7
v 0.6 0.1 -0.7
v 0.7 0.1 -0.7
v -0.8 0.1 -0.8
v 0.8 0.1 -0.8
v -0.6 0.2 -0.5
v -0.5 0.2 -0.5
v 0.5 0.2 -0.5
v 0.6 0.2 -0.5
v -0.6 0.2 -0.6
v -0.5 0.2 -0.6
v 0.5 0.2 -0.6
v 0.6 0.2 -0.6
v -0.8 0.3 0.8
v -0.6 0.3 0.8
v -0.5 0.3 0.8
v -0.4 0.3 0.8
v -0.3 0.3 0.8
v -0.1 0.3 0.8
v -0.7 0.3 0.7
v -0.6 0.3 0.7
v -0.5 0.3 0.7
v -0.4 0.3 0.7
v -0.3 0.3 0.7
v -0.2 0.3 0.7
v 0.1 0.3 0.6
v 0.6 0.3 0.6
v -0.8 0.3 0.5
v -0.7 0.3 0.5
v 0.2 0.3 0.5
v 0.5 0.3 0.5
v -0.8 0.3 0.4
v -0.7 0.3 0.4
v -0.8 0.3 0.3
v -0.7 0.3 0.3
v -0.8 0.3 0.2
v -0.7 0.3 0.2
v 0.2 0.3 0.2
v 0.5 0.3 0.2
v 0.1 0.3 0.1
v 0.6 0.3 0.1
v -0.7 0.3 0
v -0.2 0.3 0
v -0.6 0.3 -0.1
v -0.5 0.3 -0.1
v -0.4 0.3 -0.1
v -0.3 0.3 -0.1
v -0.6 0.3 -0.2
v -0.5 0.3 -0.2
v -0.4 0.3 -0.2
v -0.3 0.3 -0.2
v -0.8 0.3 -0.3
v -0.1 0.3 -0.3
v -0.7 0.3 -0.4
v -0.6 0.3 -0.4
v -0.5 0.3 -0.4
v 0.5 0.3 -0.4
v 0.6 0.3 -0.4
v 0.7 0.3 -0.4
v -0.7 0.3 -0.7
v -0.6 0.3 -0.7
v -0.5 0.3 -0.7
v 0.5 0.3 -0.7
v 0.6 0.3 -0.7
v 0.7 0.3 -0.7
v -0.4 0.7 0.8
v -0.3 0.7 0.8
v -0.4 0.7 0.7
v -0.3 0.7 0.7
v -0.6 0.9 0.8
v -0.5 0.9 0.8
v -0.6 0.9 0.7
v -0.5 0.9 0.7
v -0.6 1 0
v -0.5 1 0
v -0.4 1 0
v -0.3 1 0
v -0.6 1 -0.2
v -0.5 1 -0.2
v -0.4 1 -0.2
v -0.3 1 -0.2
v 0.4 1.1 0.5
v 0.5 1.1 0.5
v 0.4 1.1 0.2
v 0.5 1.1 0.2
v -0.8 1.2 0.5
v -0.7 1.2 0.5
v -0.2 1.2 0.5
v 0.4 1.2 0.5
v -0.8 1.2 0.4
v -0.7 1.2 0.4
v -0.8 1.2 0.3
v -0.7 1.2 0.3
v -0.8 1.2 0.2
v -0.7 1.2 0.2
v -0.2 1.2 0.2
v 0.4 1.2 0.2
v -0.7 1.3 0.7
v -0.2 1.3 0.7
v -0.7 1.3 0.6
v -0.2 1.3 0.6
v -0.7 1.3 0.1
v -0.2 1.3 0.1
v -0.7 1.3 0
v -0.2 1.3 0
v -0.7 1.4 0.6
v -0.2 1.4 0.6
v -0.7 1.4 0.1
v -0.2 1.4 0.1

# faces
f 4/5/1 2/5/1 1/5/1
f 4/2/1 3/2/1 2/2/1
f 5/2/1 3/2/1 4/2/1
f 6/5/1 4/5/1 1/5/1
f 7/5/1 4/5/1 6/5/1
f 8/5/1 4/5/1 7/5/1
f 9/5/1 4/5/1 8/5/1
f 10/5/1 4/5/1 9/5/1
f 11/5/1 4/5/1 10/5/1
f 12/1/1 8/1/1 7/1/1
f 13/1/1 8/1/1 12/1/1
f 14/1/1 10/1/1 9/1/1
f 15/1/1 10/1/1 14/1/1
f 24/1/1 17/1/1 16/1/1
f 25/1/1 17/1/1 24/1/1
f 26/3/1 19/3/1 18/3/1
f 27/3/1 21/3/1 20/3/1
f 28/3/1 21/3/1 27/3/1
f 29/3/1 23/3/1 22/3/1
f 30/3/1 28/3/1 27/3/1
f 30/3/1 29/3/1 28/3/1
f 30/3/1 26/3/1 18/3/1
f 30/3/1 27/3/1 26/3/1
f 31/3/1 29/3/1 30/3/1
f 32/3/1 23/3/1 29/3/1
f 32/3/1 29/3/1 31/3/1
f 33/3/1 23/3/1 32/3/1
f 34/3/1 32/3/1 31/3/1
f 35/3/1 32/3/1 34/3/1
f 40/1/1 37/1/1 36/1/1
f 41/1/1 37/1/1 40/1/1
f 43/1/1 39/1/1 38/1/1
f 44/1/1 43/1/1 42/1/1
f 45/1/1 39/1/1 43/1/1
f 45/1/1 43/1/1 44/1/1
f 50/4/1 47/4/1 46/4/1
f 51/4/1 49/4/1 48/4/1
f 52/4/1 50/4/1 46/4/1
f 52/4/1 51/4/1 50/4/1
f 53/4/1 49/4/1 51/4/1
f 53/4/1 51/4/1 52/4/1
f 58/1/1 55/1/1 54/1/1
f 59/1/1 55/1/1 58/1/1
f 61/1/1 57/1/1 56/1/1
f 62/1/1 61/1/1 60/1/1
f 63/1/1 57/1/1 61/1/1
f 63/1/1 61/1/1 62/1/1
f 66/1/1 65/1/1 64/1/1
f 67/1/1 65/1/1 66/1/1
f 70/2/1 69/2/1 68/2/1
f 71/2/1 69/2/1 70/2/1
f 76/1/1 73/1/1 72/1/1
f 77/1/1 75/1/1 74/1/1
f 78/1/1 76/1/1 72/1/1
f 78/1/1 77/1/1 76/1/1
f 79/1/1 75/1/1 77/1/1
f 79/1/1 77/1/1 78/1/1
f 80/1/2 81/1/2 84/1/2
f 82/1/2 83/1/2 85/1/2
f 80/1/2 84/1/2 86/1/2
f 84/1/2 85/1/2 86/1/2
f 85/1/2 83/1/2 87/1/2
f 86/1/2 85/1/2 87/1/2
f 88/1/2 89/1/2 92/1/2
f 92/1/2 89/1/2 93/1/2
f 90/1/2 91/1/2 95/1/2
f 94/1/2 95/1/2 96/1/2
f 95/1/2 91/1/2 97/1/2
f 96/1/2 95/1/2 97/1/2
f 98/1/2 99/1/2 102/1/2
f 102/1/2 99/1/2 103/1/2
f 100/1/2 101/1/2 105/1/2
f 104/1/2 105/1/2 106/1/2
f 105/1/2 101/1/2 107/1/2
f 106/1/2 105/1/2 107/1/2
f 108/3/2 109/3/2 110/3/2
f 110/3/2 109/3/2 111/3/2
f 108/3/2 110/3/2 112/3/2
f 111/3/2 109/3/2 113/3/2
f 108/3/2 112/3/2 114/3/2
f 112/3/2 113/3/2 114/3/2
f 114/3/2 113/3/2 115/3/2
f 113/3/2 109/3/2 116/3/2
f 115/3/2 113/3/2 116/3/2
f 116/3/2 109/3/2 117/3/2
f 115/3/2 116/3/2 118/3/2
f 118/3/2 116/3/2 119/3/2
f 120/5/2 121/5/2 122/5/2
f 120/5/2 122/5/2 123/5/2
f 123/5/2 122/5/2 124/5/2
f 125/2/2 126/2/2 127/2/2
f 127/2/2 126/2/2 128/2/2
f 129/4/2 130/4/2 133/4/2
f 131/4/2 132/4/2 134/4/2
f 129/4/2 133/4/2 137/4/2
f 133/4/2 134/4/2 137/4/2
f 134/4/2 132/4/2 138/4/2
f 137/4/2 134/4/2 138/4/2
f 135/2/2 136/2/2 139/2/2
f 139/2/2 136/2/2 140/2/2
f 141/1/2 142/1/2 143/1/2
f 143/1/2 142/1/2 144/1/2
f 145/1/2 146/1/2 147/1/2
f 147/1/2 146/1/2 148/1/2
f 149/2/2 150/2/2 151/2/2
f 151/2/2 150/2/2 152/2/2
f 155/5/3 154/5/3 153/5/3
f 157/5/3 155/5/3 153/5/3
f 157/1/3 156/1/3 155/1/3
f 158/1/3 156/1/3 157/1/3
f 159/5/3 157/5/3 153/5/3
f 161/5/3 159/5/3 153/5/3
f 161/1/3 160/1/3 159/1/3
f 162/1/3 160/1/3 161/1/3
f 163/5/3 161/5/3 153/5/3
f 164/5/3 161/5/3 163/5/3
f 167/3/3 166/3/3 165/3/3
f 168/3/3 166/3/3 167/3/3
f 170/3/3 166/3/3 168/3/3
f 171/3/3 170/3/3 169/3/3
f 172/3/3 170/3/3 171/3/3
f 174/3/3 170/3/3 172/3/3
f 175/3/3 174/3/3 173/3/3
f 176/3/3 166/3/3 170/3/3
f 176/3/3 174/3/3 175/3/3
f 176/3/3 170/3/3 174/3/3
f 179/3/3 178/3/3 177/3/3
f 180/3/3 178/3/3 179/3/3
f 183/1/3 182/1/3 181/1/3
f 184/1/3 182/1/3 183/1/3
f 187/1/3 186/1/3 185/1/3
f 188/1/3 186/1/3 187/1/3
f 192/2/3 190/2/3 189/2/3
f 193/2/3 190/2/3 192/2/3
f 193/2/3 192/2/3 191/2/3
f 194/2/3 190/2/3 193/2/3
f 195/2/3 193/2/3 191/2/3
f 196/2/3 193/2/3 195/2/3
f 199/1/3 198/1/3 197/1/3
f 200/1/3 198/1/3 199/1/3
f 203/1/3 202/1/3 201/1/3
f 204/1/3 202/1/3 203/1/3
f 207/1/3 206/1/3 205/1/3
f 208/1/3 206/1/3 207/1/3
f 211/2/3 210/2/3 209/2/3
f 212/2/3 210/2/3 211/2/3
f 215/1/3 214/1/3 213/1/3
f 216/1/3 214/1/3 215/1/3
f 219/4/3 218/4/3 217/4/3
f 220/4/3 218/4/3 219/4/3
f 223/1/3 222/1/3 221/1/3
f 224/1/3 222/1/3 223/1/3
f 227/1/3 226/1/3 225/1/3
f 228/1/3 226/1/3 227/1/3
f 231/1/3 230/1/3 229/1/3
f 232/1/3 230/1/3 231/1/3
f 233/1/4 234/1/4 235/1/4
f 235/1/4 234/1/4 236/1/4
f 237/1/4 238/1/4 239/1/4
f 239/1/4 238/1/4 240/1/4
f 241/2/4 242/2/4 244/2/4
f 244/2/4 242/2/4 245/2/4
f 243/2/4 244/2/4 245/2/4
f 245/2/4 242/2/4 246/2/4
f 243/2/4 245/2/4 247/2/4
f 247/2/4 245/2/4 248/2/4
f 249/3/4 250/3/4 251/3/4
f 251/3/4 250/3/4 252/3/4
f 253/1/4 254/1/4 255/1/4
f 255/1/4 254/1/4 256/1/4
f 257/3/4 258/3/4 259/3/4
f 259/3/4 258/3/4 260/3/4
f 257/3/4 259/3/4 261/3/4
f 260/3/4 258/3/4 262/3/4
f 257/3/4 261/3/4 263/3/4
f 261/3/4 262/3/4 263/3/4
f 262/3/4 258/3/4 264/3/4
f 263/3/4 262/3/4 264/3/4
f 257/3/4 263/3/4 265/3/4
f 264/3/4 258/3/4 266/3/4
f 257/3/4 265/3/4 267/3/4
f 265/3/4 266/3/4 267/3/4
f 266/3/4 258/3/4 268/3/4
f 267/3/4 266/3/4 268/3/4
f 269/1/4 270/1/4 271/1/4
f 271/1/4 270/1/4 272/1/4
f 273/1/4 274/1/4 275/1/4
f 275/1/4 274/1/4 276/1/4
f 277/5/4 278/5/4 279/5/4
f 279/5/4 278/5/4 280/5/4
f 281/1/4 282/1/4 283/1/4
f 283/1/4 282/1/4 284/1/4
f 285/1/4 286/1/4 287/1/4
f 287/1/4 286/1/4 288/1/4
f 289/1/4 290/1/4 291/1/4
f 291/1/4 290/1/4 292/1/4
f 293/4/4 294/4/4 295/4/4
f 295/4/4 294/4/4 296/4/4
f 297/1/4 298/1/4 299/1/4
f 299/1/4 298/1/4 300/1/4
f 301/2/4 302/2/4 303/2/4
f 303/2/4 302/2/4 304/2/4
f 307/5/5 306/5/5 305/5/5
f 308/5/5 306/5/5 307/5/5
f 310/2/5 308/2/5 307/2/5
f 310/2/5 309/2/5 308/2/5
f 311/2/5 309/2/5 310/2/5
f 314/1/5 313/1/5 312/1/5
f 315/1/5 313/1/5 314/1/5
f 318/2/5 317/2/5 316/2/5
f 319/2/5 317/2/5 318/2/5
f 324/1/5 321/1/5 320/1/5
f 325/1/5 321/1/5 324/1/5
f 326/1/5 323/1/5 322/1/5
f 327/1/5 323/1/5 326/1/5
f 328/2/6 329/2/6 331/2/6
f 329/2/6 330/2/6 331/2/6
f 331/2/6 330/2/6 332/2/6
f 332/2/6 330/2/6 333/2/6
f 333/2/6 330/2/6 334/2/6
f 334/2/6 330/2/6 335/2/6
f 335/2/6 330/2/6 336/2/6
f 332/2/6 333/2/6 337/2/6
f 337/2/6 333/2/6 338/2/6
f 334/2/6 335/2/6 339/2/6
f 339/2/6 335/2/6 340/2/6
f 328/2/6 331/2/6 345/2/6
f 341/2/6 342/2/6 346/2/6
f 346/2/6 342/2/6 347/2/6
f 343/2/6 344/2/6 348/2/6
f 348/2/6 344/2/6 349/2/6
f 336/2/6 330/2/6 350/2/6
f 346/2/6 347/2/6 351/2/6
f 349/2/6 350/2/6 351/2/6
f 348/2/6 349/2/6 351/2/6
f 347/2/6 348/2/6 351/2/6
f 328/2/6 345/2/6 351/2/6
f 345/2/6 346/2/6 351/2/6
f 350/2/6 330/2/6 352/2/6
f 351/2/6 350/2/6 352/2/6
f 353/1/6 354/1/6 357/1/6
f 357/1/6 354/1/6 358/1/6
f 355/1/6 356/1/6 359/1/6
f 359/1/6 356/1/6 360/1/6
f 361/5/6 362/5/6 367/5/6
f 367/5/6 362/5/6 368/5/6
f 363/5/6 364/5/6 369/5/6
f 369/5/6 364/5/6 370/5/6
f 365/5/6 366/5/6 371/5/6
f 371/5/6 366/5/6 372/5/6
f 361/5/6 367/5/6 375/5/6
f 375/5/6 367/5/6 376/5/6
f 373/1/6 374/1/6 377/1/6
f 377/1/6 374/1/6 378/1/6
f 379/5/6 380/5/6 381/5/6
f 381/5/6 380/5/6 382/5/6
f 373/1/6 377/1/6 385/1/6
f 378/1/6 374/1/6 386/1/6
f 373/1/6 385/1/6 387/1/6
f 385/1/6 386/1/6 387/1/6
f 386/1/6 374/1/6 388/1/6
f 387/1/6 386/1/6 388/1/6
f 383/5/6 384/5/6 389/5/6
f 372/5/6 366/5/6 390/5/6
f 389/5/6 390/5/6 391/5/6
f 391/5/6 390/5/6 392/5/6
f 392/5/6 390/5/6 393/5/6
f 393/5/6 390/5/6 394/5/6
f 389/5/6 391/5/6 395/5/6
f 392/5/6 393/5/6 396/5/6
f 396/5/6 393/5/6 397/5/6
f 394/5/6 390/5/6 398/5/6
f 383/5/6 389/5/6 399/5/6
f 397/5/6 398/5/6 399/5/6
f 396/5/6 397/5/6 399/5/6
f 389/5/6 395/5/6 399/5/6
f 395/5/6 396/5/6 399/5/6
f 398/5/6 390/5/6 400/5/6
f 399/5/6 398/5/6 400/5/6
f 390/5/6 366/5/6 400/5/6
f 401/1/6 402/1/6 407/1/6
f 407/1/6 402/1/6 408/1/6
f 403/4/6 404/4/6 409/4/6
f 409/4/6 404/4/6 410/4/6
f 405/1/6 406/1/6 411/1/6
f 411/1/6 406/1/6 412/1/6
f 413/1/6 414/1/6 415/1/6
f 415/1/6 414/1/6 416/1/6
f 417/1/6 418/1/6 419/1/6
f 419/1/6 418/1/6 420/1/6
f 421/1/6 422/1/6 425/1/6
f 425/1/6 422/1/6 426/1/6
f 423/1/6 424/1/6 427/1/6
f 427/1/6 424/1/6 428/1/6
f 429/2/6 430/2/6 431/2/6
f 431/2/6 430/2/6 432/2/6
f 433/1/6 434/1/6 437/1/6
f 437/1/6 434/1/6 438/1/6
f 439/1/6 440/1/6 441/1/6
f 441/1/6 440/1/6 442/1/6
f 435/2/6 436/2/6 443/2/6
f 443/2/6 436/2/6 444/2/6
f 445/3/6 446/3/6 447/3/6
f 447/3/6 446/3/6 448/3/6
f 449/3/6 450/3/6 451/3/6
f 451/3/6 450/3/6 452/3/6
f 453/3/6 454/3/6 455/3/6
f 455/3/6 454/3/6 456/3/6
