# MagicaVoxel @ Ephtracy

# group
o 

# material
mtllib solar panel.mtl
usemtl palette

# normals
vn -1 0 0
vn 1 0 0
vn 0 0 1
vn 0 0 -1
vn 0 -1 0
vn 0 1 0

# texcoords
vt 0.0410156 0.5
vt 0.0644531 0.5
vt 0.103516 0.5

# verts
v -0.7 0.1 0.7
v -0.7 0.1 -0.7
v -0.7 0.2 0.7
v -0.7 0.2 -0.7
v -0.6 0 0.6
v -0.6 0 0.5
v -0.6 0 -0.5
v -0.6 0 -0.6
v -0.6 0.1 0.6
v -0.6 0.1 0.5
v -0.6 0.1 -0.5
v -0.6 0.1 -0.6
v -0.4 0.2 0.7
v -0.4 0.2 0.5
v -0.4 0.2 0.3
v -0.4 0.2 0.2
v -0.4 0.2 0
v -0.4 0.2 -0.1
v -0.4 0.2 -0.3
v -0.4 0.2 -0.4
v -0.4 0.2 -0.6
v -0.4 0.2 -0.7
v -0.4 0.3 0.7
v -0.4 0.3 0.5
v -0.4 0.3 0.3
v -0.4 0.3 0.2
v -0.4 0.3 0
v -0.4 0.3 -0.1
v -0.4 0.3 -0.3
v -0.4 0.3 -0.4
v -0.4 0.3 -0.6
v -0.4 0.3 -0.7
v 0 0.3 0.7
v 0 0.3 0.5
v 0 0.3 0.3
v 0 0.3 0.2
v 0 0.3 0
v 0 0.3 -0.1
v 0 0.3 -0.3
v 0 0.3 -0.4
v 0 0.3 -0.6
v 0 0.3 -0.7
v 0 0.4 0.7
v 0 0.4 -0.7
v 0.4 0.4 0.7
v 0.4 0.4 0.6
v 0.4 0.4 0.5
v 0.4 0.4 0.4
v 0.4 0.4 0.3
v 0.4 0.4 0.2
v 0.4 0.4 0.1
v 0.4 0.4 0
v 0.4 0.4 -0.1
v 0.4 0.4 -0.2
v 0.4 0.4 -0.3
v 0.4 0.4 -0.4
v 0.4 0.4 -0.5
v 0.4 0.4 -0.7
v 0.4 0.5 0.7
v 0.4 0.5 0.6
v 0.4 0.5 0.5
v 0.4 0.5 0.4
v 0.4 0.5 0.3
v 0.4 0.5 0.2
v 0.4 0.5 0.1
v 0.4 0.5 0
v 0.4 0.5 -0.1
v 0.4 0.5 -0.2
v 0.4 0.5 -0.3
v 0.4 0.5 -0.4
v 0.4 0.5 -0.5
v 0.4 0.5 -0.7
v 0.5 0.1 0.6
v 0.5 0.1 0.5
v 0.5 0.1 -0.5
v 0.5 0.1 -0.6
v 0.5 0.4 0.6
v 0.5 0.4 0.5
v 0.5 0.4 -0.5
v 0.5 0.4 -0.6
v -0.4 0.1 0.7
v -0.4 0.1 0.6
v -0.4 0.1 0.5
v -0.4 0.1 0.3
v -0.4 0.1 0.2
v -0.4 0.1 0
v -0.4 0.1 -0.1
v -0.4 0.1 -0.3
v -0.4 0.1 -0.4
v -0.4 0.1 -0.5
v -0.4 0.1 -0.6
v -0.4 0.1 -0.7
v -0.4 0.2 0.7
v -0.4 0.2 0.5
v -0.4 0.2 0.3
v -0.4 0.2 0.2
v -0.4 0.2 0
v -0.4 0.2 -0.1
v -0.4 0.2 -0.3
v -0.4 0.2 -0.4
v -0.4 0.2 -0.6
v -0.4 0.2 -0.7
v 0 0.2 0.7
v 0 0.2 0.5
v 0 0.2 0.3
v 0 0.2 0.2
v 0 0.2 0
v 0 0.2 -0.1
v 0 0.2 -0.3
v 0 0.2 -0.4
v 0 0.2 -0.6
v 0 0.2 -0.7
v 0 0.3 0.7
v 0 0.3 0.5
v 0 0.3 0.3
v 0 0.3 0.2
v 0 0.3 0
v 0 0.3 -0.1
v 0 0.3 -0.3
v 0 0.3 -0.4
v 0 0.3 -0.6
v 0 0.3 -0.7
v 0.4 0.3 0.7
v 0.4 0.3 0.6
v 0.4 0.3 0.4
v 0.4 0.3 0.3
v 0.4 0.3 0.1
v 0.4 0.3 0
v 0.4 0.3 -0.2
v 0.4 0.3 -0.3
v 0.4 0.3 -0.5
v 0.4 0.3 -0.7
v 0.4 0.4 0.7
v 0.4 0.4 0.6
v 0.4 0.4 0.5
v 0.4 0.4 0.4
v 0.4 0.4 0.3
v 0.4 0.4 0.2
v 0.4 0.4 0.1
v 0.4 0.4 0
v 0.4 0.4 -0.1
v 0.4 0.4 -0.2
v 0.4 0.4 -0.3
v 0.4 0.4 -0.4
v 0.4 0.4 -0.5
v 0.4 0.4 -0.7
v 0.6 0 0.6
v 0.6 0 0.5
v 0.6 0 -0.5
v 0.6 0 -0.6
v 0.6 0.4 0.6
v 0.6 0.4 0.5
v 0.6 0.4 -0.5
v 0.6 0.4 -0.6
v 0.7 0.4 0.7
v 0.7 0.4 -0.7
v 0.7 0.5 0.7
v 0.7 0.5 -0.7
v -0.7 0.1 0.7
v -0.7 0.2 0.7
v -0.4 0.1 0.7
v -0.4 0.2 0.7
v -0.4 0.3 0.7
v 0 0.2 0.7
v 0 0.3 0.7
v 0 0.4 0.7
v 0.4 0.3 0.7
v 0.4 0.4 0.7
v 0.4 0.5 0.7
v 0.7 0.4 0.7
v 0.7 0.5 0.7
v -0.6 0 0.6
v -0.6 0.1 0.6
v -0.4 0.1 0.6
v 0.5 0.1 0.6
v 0.5 0.4 0.6
v 0.6 0 0.6
v 0.6 0.4 0.6
v -0.6 0 -0.5
v -0.6 0.1 -0.5
v -0.4 0.1 -0.5
v 0.5 0.1 -0.5
v 0.5 0.4 -0.5
v 0.6 0 -0.5
v 0.6 0.4 -0.5
v -0.6 0 0.5
v -0.6 0.1 0.5
v -0.4 0.1 0.5
v 0.5 0.1 0.5
v 0.5 0.4 0.5
v 0.6 0 0.5
v 0.6 0.4 0.5
v -0.6 0 -0.6
v -0.6 0.1 -0.6
v -0.4 0.1 -0.6
v 0.5 0.1 -0.6
v 0.5 0.4 -0.6
v 0.6 0 -0.6
v 0.6 0.4 -0.6
v -0.7 0.1 -0.7
v -0.7 0.2 -0.7
v -0.4 0.1 -0.7
v -0.4 0.2 -0.7
v -0.4 0.3 -0.7
v 0 0.2 -0.7
v 0 0.3 -0.7
v 0 0.4 -0.7
v 0.4 0.3 -0.7
v 0.4 0.4 -0.7
v 0.4 0.5 -0.7
v 0.7 0.4 -0.7
v 0.7 0.5 -0.7
v -0.6 0 0.6
v 0.6 0 0.6
v -0.6 0 0.5
v 0.6 0 0.5
v -0.6 0 -0.5
v 0.6 0 -0.5
v -0.6 0 -0.6
v 0.6 0 -0.6
v -0.7 0.1 0.7
v -0.4 0.1 0.7
v -0.6 0.1 0.6
v -0.4 0.1 0.6
v -0.6 0.1 0.5
v -0.4 0.1 0.5
v -0.6 0.1 0.3
v -0.4 0.1 0.3
v -0.6 0.1 0.2
v -0.4 0.1 0.2
v -0.6 0.1 0
v -0.4 0.1 0
v -0.6 0.1 -0.1
v -0.4 0.1 -0.1
v -0.6 0.1 -0.3
v -0.4 0.1 -0.3
v -0.6 0.1 -0.4
v -0.4 0.1 -0.4
v -0.6 0.1 -0.5
v -0.4 0.1 -0.5
v -0.6 0.1 -0.6
v -0.4 0.1 -0.6
v -0.7 0.1 -0.7
v -0.4 0.1 -0.7
v -0.4 0.2 0.7
v 0 0.2 0.7
v -0.4 0.2 0.5
v -0.1 0.2 0.5
v 0 0.2 0.5
v -0.2 0.2 0.4
v -0.1 0.2 0.4
v -0.4 0.2 0.3
v -0.2 0.2 0.3
v 0 0.2 0.3
v -0.4 0.2 0.2
v -0.1 0.2 0.2
v 0 0.2 0.2
v -0.2 0.2 0.1
v -0.1 0.2 0.1
v -0.4 0.2 0
v -0.2 0.2 0
v 0 0.2 0
v -0.4 0.2 -0.1
v -0.1 0.2 -0.1
v 0 0.2 -0.1
v -0.2 0.2 -0.2
v -0.1 0.2 -0.2
v -0.4 0.2 -0.3
v -0.2 0.2 -0.3
v 0 0.2 -0.3
v -0.4 0.2 -0.4
v -0.1 0.2 -0.4
v 0 0.2 -0.4
v -0.2 0.2 -0.5
v -0.1 0.2 -0.5
v -0.4 0.2 -0.6
v -0.2 0.2 -0.6
v 0 0.2 -0.6
v -0.4 0.2 -0.7
v 0 0.2 -0.7
v 0 0.3 0.7
v 0.4 0.3 0.7
v 0.1 0.3 0.6
v 0.4 0.3 0.6
v 0 0.3 0.5
v 0.1 0.3 0.4
v 0.4 0.3 0.4
v 0 0.3 0.3
v 0.1 0.3 0.3
v 0.4 0.3 0.3
v 0 0.3 0.2
v 0.1 0.3 0.1
v 0.4 0.3 0.1
v 0 0.3 0
v 0.1 0.3 0
v 0.4 0.3 0
v 0 0.3 -0.1
v 0.1 0.3 -0.2
v 0.4 0.3 -0.2
v 0 0.3 -0.3
v 0.1 0.3 -0.3
v 0.4 0.3 -0.3
v 0 0.3 -0.4
v 0.1 0.3 -0.5
v 0.4 0.3 -0.5
v 0 0.3 -0.6
v 0 0.3 -0.7
v 0.4 0.3 -0.7
v 0.4 0.4 0.7
v 0.7 0.4 0.7
v 0.4 0.4 0.6
v 0.5 0.4 0.6
v 0.6 0.4 0.6
v 0.4 0.4 0.5
v 0.5 0.4 0.5
v 0.6 0.4 0.5
v 0.4 0.4 0.4
v 0.6 0.4 0.4
v 0.4 0.4 0.3
v 0.5 0.4 0.3
v 0.6 0.4 0.3
v 0.4 0.4 0.2
v 0.5 0.4 0.2
v 0.4 0.4 0.1
v 0.6 0.4 0.1
v 0.4 0.4 0
v 0.5 0.4 0
v 0.6 0.4 0
v 0.4 0.4 -0.1
v 0.5 0.4 -0.1
v 0.4 0.4 -0.2
v 0.6 0.4 -0.2
v 0.4 0.4 -0.3
v 0.5 0.4 -0.3
v 0.6 0.4 -0.3
v 0.4 0.4 -0.4
v 0.5 0.4 -0.4
v 0.4 0.4 -0.5
v 0.5 0.4 -0.5
v 0.6 0.4 -0.5
v 0.5 0.4 -0.6
v 0.6 0.4 -0.6
v 0.4 0.4 -0.7
v 0.7 0.4 -0.7
v -0.4 0.1 0.6
v 0.5 0.1 0.6
v -0.4 0.1 0.5
v 0.5 0.1 0.5
v -0.4 0.1 -0.5
v 0.5 0.1 -0.5
v -0.4 0.1 -0.6
v 0.5 0.1 -0.6
v -0.7 0.2 0.7
v -0.4 0.2 0.7
v -0.6 0.2 0.5
v -0.4 0.2 0.5
v -0.6 0.2 0.3
v -0.4 0.2 0.3
v -0.6 0.2 0.2
v -0.4 0.2 0.2
v -0.6 0.2 0
v -0.4 0.2 0
v -0.6 0.2 -0.1
v -0.4 0.2 -0.1
v -0.6 0.2 -0.3
v -0.4 0.2 -0.3
v -0.6 0.2 -0.4
v -0.4 0.2 -0.4
v -0.6 0.2 -0.6
v -0.4 0.2 -0.6
v -0.7 0.2 -0.7
v -0.4 0.2 -0.7
v -0.4 0.3 0.7
v 0 0.3 0.7
v -0.4 0.3 0.5
v -0.1 0.3 0.5
v 0 0.3 0.5
v -0.2 0.3 0.4
v -0.1 0.3 0.4
v -0.4 0.3 0.3
v -0.2 0.3 0.3
v 0 0.3 0.3
v -0.4 0.3 0.2
v -0.1 0.3 0.2
v 0 0.3 0.2
v -0.2 0.3 0.1
v -0.1 0.3 0.1
v -0.4 0.3 0
v -0.2 0.3 0
v 0 0.3 0
v -0.4 0.3 -0.1
v -0.1 0.3 -0.1
v 0 0.3 -0.1
v -0.2 0.3 -0.2
v -0.1 0.3 -0.2
v -0.4 0.3 -0.3
v -0.2 0.3 -0.3
v 0 0.3 -0.3
v -0.4 0.3 -0.4
v -0.1 0.3 -0.4
v 0 0.3 -0.4
v -0.2 0.3 -0.5
v -0.1 0.3 -0.5
v -0.4 0.3 -0.6
v -0.2 0.3 -0.6
v 0 0.3 -0.6
v -0.4 0.3 -0.7
v 0 0.3 -0.7
v 0 0.4 0.7
v 0.4 0.4 0.7
v 0.1 0.4 0.6
v 0.4 0.4 0.6
v 0.4 0.4 0.5
v 0.1 0.4 0.4
v 0.4 0.4 0.4
v 0.1 0.4 0.3
v 0.4 0.4 0.3
v 0.4 0.4 0.2
v 0.1 0.4 0.1
v 0.4 0.4 0.1
v 0.1 0.4 0
v 0.4 0.4 0
v 0.4 0.4 -0.1
v 0.1 0.4 -0.2
v 0.4 0.4 -0.2
v 0.1 0.4 -0.3
v 0.4 0.4 -0.3
v 0.4 0.4 -0.4
v 0.1 0.4 -0.5
v 0.4 0.4 -0.5
v 0 0.4 -0.7
v 0.4 0.4 -0.7
v 0.4 0.5 0.7
v 0.7 0.5 0.7
v 0.4 0.5 0.6
v 0.5 0.5 0.6
v 0.6 0.5 0.6
v 0.4 0.5 0.5
v 0.5 0.5 0.5
v 0.4 0.5 0.4
v 0.6 0.5 0.4
v 0.4 0.5 0.3
v 0.5 0.5 0.3
v 0.6 0.5 0.3
v 0.4 0.5 0.2
v 0.5 0.5 0.2
v 0.4 0.5 0.1
v 0.6 0.5 0.1
v 0.4 0.5 0
v 0.5 0.5 0
v 0.6 0.5 0
v 0.4 0.5 -0.1
v 0.5 0.5 -0.1
v 0.4 0.5 -0.2
v 0.6 0.5 -0.2
v 0.4 0.5 -0.3
v 0.5 0.5 -0.3
v 0.6 0.5 -0.3
v 0.4 0.5 -0.4
v 0.5 0.5 -0.4
v 0.4 0.5 -0.5
v 0.6 0.5 -0.5
v 0.4 0.5 -0.7
v 0.7 0.5 -0.7

# faces
f 3/2/1 2/2/1 1/2/1
f 4/2/1 2/2/1 3/2/1
f 9/2/1 6/2/1 5/2/1
f 10/2/1 6/2/1 9/2/1
f 11/2/1 8/2/1 7/2/1
f 12/2/1 8/2/1 11/2/1
f 23/2/1 14/2/1 13/2/1
f 24/1/1 15/1/1 14/1/1
f 24/2/1 14/2/1 23/2/1
f 25/2/1 16/2/1 15/2/1
f 25/1/1 15/1/1 24/1/1
f 26/1/1 17/1/1 16/1/1
f 26/2/1 16/2/1 25/2/1
f 27/2/1 18/2/1 17/2/1
f 27/1/1 17/1/1 26/1/1
f 28/1/1 19/1/1 18/1/1
f 28/2/1 18/2/1 27/2/1
f 29/2/1 20/2/1 19/2/1
f 29/1/1 19/1/1 28/1/1
f 30/1/1 21/1/1 20/1/1
f 30/2/1 20/2/1 29/2/1
f 31/2/1 22/2/1 21/2/1
f 31/1/1 21/1/1 30/1/1
f 32/2/1 22/2/1 31/2/1
f 43/2/1 34/2/1 33/2/1
f 43/2/1 42/2/1 41/2/1
f 43/2/1 41/2/1 40/2/1
f 43/2/1 40/2/1 39/2/1
f 43/2/1 39/2/1 38/2/1
f 43/2/1 38/2/1 37/2/1
f 43/2/1 37/2/1 36/2/1
f 43/2/1 36/2/1 35/2/1
f 43/2/1 35/2/1 34/2/1
f 44/2/1 42/2/1 43/2/1
f 59/2/1 46/2/1 45/2/1
f 60/1/1 47/1/1 46/1/1
f 60/2/1 46/2/1 59/2/1
f 61/3/1 48/3/1 47/3/1
f 61/1/1 47/1/1 60/1/1
f 62/2/1 49/2/1 48/2/1
f 62/3/1 48/3/1 61/3/1
f 63/1/1 50/1/1 49/1/1
f 63/2/1 49/2/1 62/2/1
f 64/3/1 51/3/1 50/3/1
f 64/1/1 50/1/1 63/1/1
f 65/2/1 52/2/1 51/2/1
f 65/3/1 51/3/1 64/3/1
f 66/1/1 53/1/1 52/1/1
f 66/2/1 52/2/1 65/2/1
f 67/3/1 54/3/1 53/3/1
f 67/1/1 53/1/1 66/1/1
f 68/2/1 55/2/1 54/2/1
f 68/3/1 54/3/1 67/3/1
f 69/1/1 56/1/1 55/1/1
f 69/2/1 55/2/1 68/2/1
f 70/3/1 57/3/1 56/3/1
f 70/1/1 56/1/1 69/1/1
f 71/2/1 58/2/1 57/2/1
f 71/3/1 57/3/1 70/3/1
f 72/2/1 58/2/1 71/2/1
f 77/2/1 74/2/1 73/2/1
f 78/2/1 74/2/1 77/2/1
f 79/2/1 76/2/1 75/2/1
f 80/2/1 76/2/1 79/2/1
f 81/2/2 82/2/2 93/2/2
f 82/2/2 83/2/2 93/2/2
f 83/1/2 84/1/2 94/1/2
f 93/2/2 83/2/2 94/2/2
f 84/2/2 85/2/2 95/2/2
f 94/1/2 84/1/2 95/1/2
f 85/1/2 86/1/2 96/1/2
f 95/2/2 85/2/2 96/2/2
f 86/2/2 87/2/2 97/2/2
f 96/1/2 86/1/2 97/1/2
f 87/1/2 88/1/2 98/1/2
f 97/2/2 87/2/2 98/2/2
f 88/2/2 89/2/2 99/2/2
f 98/1/2 88/1/2 99/1/2
f 90/1/2 91/1/2 100/1/2
f 99/2/2 89/2/2 100/2/2
f 89/1/2 90/1/2 100/1/2
f 91/2/2 92/2/2 101/2/2
f 100/1/2 91/1/2 101/1/2
f 101/2/2 92/2/2 102/2/2
f 103/2/2 104/2/2 113/2/2
f 104/3/2 105/3/2 114/3/2
f 113/2/2 104/2/2 114/2/2
f 105/2/2 106/2/2 115/2/2
f 114/3/2 105/3/2 115/3/2
f 106/3/2 107/3/2 116/3/2
f 115/2/2 106/2/2 116/2/2
f 107/2/2 108/2/2 117/2/2
f 116/3/2 107/3/2 117/3/2
f 108/3/2 109/3/2 118/3/2
f 117/2/2 108/2/2 118/2/2
f 109/2/2 110/2/2 119/2/2
f 118/3/2 109/3/2 119/3/2
f 110/3/2 111/3/2 120/3/2
f 119/2/2 110/2/2 120/2/2
f 111/2/2 112/2/2 121/2/2
f 120/3/2 111/3/2 121/3/2
f 121/2/2 112/2/2 122/2/2
f 123/2/2 124/2/2 133/2/2
f 124/1/2 125/1/2 134/1/2
f 133/2/2 124/2/2 134/2/2
f 134/1/2 125/1/2 135/1/2
f 125/2/2 126/2/2 136/2/2
f 135/1/2 125/1/2 136/1/2
f 126/1/2 127/1/2 137/1/2
f 136/2/2 126/2/2 137/2/2
f 137/1/2 127/1/2 138/1/2
f 127/2/2 128/2/2 139/2/2
f 138/1/2 127/1/2 139/1/2
f 128/1/2 129/1/2 140/1/2
f 139/2/2 128/2/2 140/2/2
f 140/1/2 129/1/2 141/1/2
f 129/2/2 130/2/2 142/2/2
f 141/1/2 129/1/2 142/1/2
f 130/1/2 131/1/2 143/1/2
f 142/2/2 130/2/2 143/2/2
f 143/1/2 131/1/2 144/1/2
f 131/2/2 132/2/2 145/2/2
f 144/1/2 131/1/2 145/1/2
f 145/2/2 132/2/2 146/2/2
f 147/2/2 148/2/2 151/2/2
f 151/2/2 148/2/2 152/2/2
f 149/2/2 150/2/2 153/2/2
f 153/2/2 150/2/2 154/2/2
f 155/2/2 156/2/2 157/2/2
f 157/2/2 156/2/2 158/2/2
f 161/2/3 160/2/3 159/2/3
f 162/2/3 160/2/3 161/2/3
f 164/2/3 163/2/3 162/2/3
f 165/2/3 163/2/3 164/2/3
f 167/2/3 166/2/3 165/2/3
f 168/2/3 166/2/3 167/2/3
f 170/2/3 169/2/3 168/2/3
f 171/2/3 169/2/3 170/2/3
f 174/2/3 173/2/3 172/2/3
f 175/2/3 174/2/3 172/2/3
f 177/2/3 175/2/3 172/2/3
f 177/2/3 176/2/3 175/2/3
f 178/2/3 176/2/3 177/2/3
f 181/2/3 180/2/3 179/2/3
f 182/2/3 181/2/3 179/2/3
f 184/2/3 182/2/3 179/2/3
f 184/2/3 183/2/3 182/2/3
f 185/2/3 183/2/3 184/2/3
f 186/2/4 187/2/4 188/2/4
f 186/2/4 188/2/4 189/2/4
f 186/2/4 189/2/4 191/2/4
f 189/2/4 190/2/4 191/2/4
f 191/2/4 190/2/4 192/2/4
f 193/2/4 194/2/4 195/2/4
f 193/2/4 195/2/4 196/2/4
f 193/2/4 196/2/4 198/2/4
f 196/2/4 197/2/4 198/2/4
f 198/2/4 197/2/4 199/2/4
f 200/2/4 201/2/4 202/2/4
f 202/2/4 201/2/4 203/2/4
f 203/2/4 204/2/4 205/2/4
f 205/2/4 204/2/4 206/2/4
f 206/2/4 207/2/4 208/2/4
f 208/2/4 207/2/4 209/2/4
f 209/2/4 210/2/4 211/2/4
f 211/2/4 210/2/4 212/2/4
f 215/2/5 214/2/5 213/2/5
f 216/2/5 214/2/5 215/2/5
f 219/2/5 218/2/5 217/2/5
f 220/2/5 218/2/5 219/2/5
f 223/2/5 222/2/5 221/2/5
f 224/2/5 222/2/5 223/2/5
f 225/2/5 223/2/5 221/2/5
f 227/2/5 225/2/5 221/2/5
f 227/1/5 226/1/5 225/1/5
f 228/1/5 226/1/5 227/1/5
f 229/2/5 227/2/5 221/2/5
f 229/2/5 228/2/5 227/2/5
f 230/2/5 228/2/5 229/2/5
f 231/2/5 229/2/5 221/2/5
f 231/1/5 230/1/5 229/1/5
f 232/1/5 230/1/5 231/1/5
f 233/2/5 231/2/5 221/2/5
f 233/2/5 232/2/5 231/2/5
f 234/2/5 232/2/5 233/2/5
f 235/2/5 233/2/5 221/2/5
f 235/1/5 234/1/5 233/1/5
f 236/1/5 234/1/5 235/1/5
f 237/2/5 235/2/5 221/2/5
f 237/2/5 236/2/5 235/2/5
f 238/2/5 236/2/5 237/2/5
f 239/2/5 237/2/5 221/2/5
f 239/1/5 238/1/5 237/1/5
f 240/1/5 238/1/5 239/1/5
f 241/2/5 239/2/5 221/2/5
f 243/2/5 241/2/5 221/2/5
f 243/2/5 242/2/5 241/2/5
f 244/2/5 242/2/5 243/2/5
f 247/2/5 246/2/5 245/2/5
f 248/2/5 246/2/5 247/2/5
f 249/2/5 246/2/5 248/2/5
f 250/1/5 248/1/5 247/1/5
f 251/3/5 249/3/5 248/3/5
f 251/1/5 248/1/5 250/1/5
f 252/1/5 250/1/5 247/1/5
f 253/3/5 251/3/5 250/3/5
f 253/1/5 250/1/5 252/1/5
f 254/3/5 249/3/5 251/3/5
f 254/3/5 251/3/5 253/3/5
f 255/2/5 253/2/5 252/2/5
f 255/2/5 254/2/5 253/2/5
f 256/2/5 254/2/5 255/2/5
f 257/2/5 254/2/5 256/2/5
f 258/1/5 256/1/5 255/1/5
f 259/3/5 257/3/5 256/3/5
f 259/1/5 256/1/5 258/1/5
f 260/1/5 258/1/5 255/1/5
f 261/3/5 259/3/5 258/3/5
f 261/1/5 258/1/5 260/1/5
f 262/3/5 257/3/5 259/3/5
f 262/3/5 259/3/5 261/3/5
f 263/2/5 261/2/5 260/2/5
f 263/2/5 262/2/5 261/2/5
f 264/2/5 262/2/5 263/2/5
f 265/2/5 262/2/5 264/2/5
f 266/1/5 264/1/5 263/1/5
f 267/3/5 265/3/5 264/3/5
f 267/1/5 264/1/5 266/1/5
f 268/1/5 266/1/5 263/1/5
f 269/3/5 267/3/5 266/3/5
f 269/1/5 266/1/5 268/1/5
f 270/3/5 265/3/5 267/3/5
f 270/3/5 267/3/5 269/3/5
f 271/2/5 269/2/5 268/2/5
f 271/2/5 270/2/5 269/2/5
f 272/2/5 270/2/5 271/2/5
f 273/2/5 270/2/5 272/2/5
f 274/1/5 272/1/5 271/1/5
f 275/3/5 273/3/5 272/3/5
f 275/1/5 272/1/5 274/1/5
f 276/1/5 274/1/5 271/1/5
f 277/3/5 275/3/5 274/3/5
f 277/1/5 274/1/5 276/1/5
f 278/3/5 273/3/5 275/3/5
f 278/3/5 275/3/5 277/3/5
f 279/2/5 277/2/5 276/2/5
f 279/2/5 278/2/5 277/2/5
f 280/2/5 278/2/5 279/2/5
f 283/2/5 282/2/5 281/2/5
f 284/2/5 282/2/5 283/2/5
f 285/2/5 283/2/5 281/2/5
f 286/1/5 284/1/5 283/1/5
f 286/2/5 283/2/5 285/2/5
f 287/1/5 284/1/5 286/1/5
f 288/2/5 286/2/5 285/2/5
f 288/2/5 287/2/5 286/2/5
f 289/2/5 287/2/5 288/2/5
f 290/2/5 287/2/5 289/2/5
f 291/2/5 289/2/5 288/2/5
f 292/1/5 290/1/5 289/1/5
f 292/2/5 289/2/5 291/2/5
f 293/1/5 290/1/5 292/1/5
f 294/2/5 292/2/5 291/2/5
f 294/2/5 293/2/5 292/2/5
f 295/2/5 293/2/5 294/2/5
f 296/2/5 293/2/5 295/2/5
f 297/2/5 295/2/5 294/2/5
f 298/1/5 296/1/5 295/1/5
f 298/2/5 295/2/5 297/2/5
f 299/1/5 296/1/5 298/1/5
f 300/2/5 298/2/5 297/2/5
f 300/2/5 299/2/5 298/2/5
f 301/2/5 299/2/5 300/2/5
f 302/2/5 299/2/5 301/2/5
f 303/2/5 301/2/5 300/2/5
f 304/1/5 302/1/5 301/1/5
f 304/2/5 301/2/5 303/2/5
f 305/1/5 302/1/5 304/1/5
f 306/2/5 304/2/5 303/2/5
f 306/2/5 305/2/5 304/2/5
f 307/2/5 305/2/5 306/2/5
f 308/2/5 305/2/5 307/2/5
f 311/2/5 310/2/5 309/2/5
f 312/2/5 310/2/5 311/2/5
f 313/2/5 310/2/5 312/2/5
f 314/1/5 312/1/5 311/1/5
f 315/1/5 312/1/5 314/1/5
f 316/2/5 310/2/5 313/2/5
f 317/3/5 315/3/5 314/3/5
f 317/3/5 316/3/5 315/3/5
f 318/2/5 310/2/5 316/2/5
f 318/3/5 316/3/5 317/3/5
f 319/2/5 318/2/5 317/2/5
f 320/2/5 318/2/5 319/2/5
f 321/2/5 310/2/5 318/2/5
f 321/2/5 318/2/5 320/2/5
f 322/1/5 320/1/5 319/1/5
f 323/3/5 321/3/5 320/3/5
f 323/1/5 320/1/5 322/1/5
f 324/3/5 323/3/5 322/3/5
f 325/2/5 310/2/5 321/2/5
f 325/3/5 323/3/5 324/3/5
f 325/3/5 321/3/5 323/3/5
f 326/2/5 325/2/5 324/2/5
f 327/2/5 325/2/5 326/2/5
f 328/2/5 310/2/5 325/2/5
f 328/2/5 325/2/5 327/2/5
f 329/1/5 327/1/5 326/1/5
f 330/3/5 328/3/5 327/3/5
f 330/1/5 327/1/5 329/1/5
f 331/3/5 330/3/5 329/3/5
f 332/2/5 310/2/5 328/2/5
f 332/3/5 330/3/5 331/3/5
f 332/3/5 328/3/5 330/3/5
f 333/2/5 332/2/5 331/2/5
f 334/2/5 332/2/5 333/2/5
f 335/2/5 310/2/5 332/2/5
f 335/2/5 332/2/5 334/2/5
f 336/1/5 334/1/5 333/1/5
f 337/3/5 335/3/5 334/3/5
f 337/1/5 334/1/5 336/1/5
f 338/3/5 337/3/5 336/3/5
f 339/3/5 335/3/5 337/3/5
f 339/3/5 337/3/5 338/3/5
f 340/2/5 310/2/5 335/2/5
f 340/3/5 335/3/5 339/3/5
f 341/2/5 339/2/5 338/2/5
f 342/2/5 310/2/5 340/2/5
f 343/2/5 341/2/5 338/2/5
f 343/2/5 342/2/5 341/2/5
f 344/2/5 310/2/5 342/2/5
f 344/2/5 342/2/5 343/2/5
f 345/2/6 346/2/6 347/2/6
f 347/2/6 346/2/6 348/2/6
f 349/2/6 350/2/6 351/2/6
f 351/2/6 350/2/6 352/2/6
f 353/2/6 354/2/6 355/2/6
f 355/2/6 354/2/6 356/2/6
f 353/2/6 355/2/6 357/2/6
f 355/1/6 356/1/6 357/1/6
f 357/1/6 356/1/6 358/1/6
f 353/2/6 357/2/6 359/2/6
f 357/2/6 358/2/6 359/2/6
f 359/2/6 358/2/6 360/2/6
f 353/2/6 359/2/6 361/2/6
f 359/1/6 360/1/6 361/1/6
f 361/1/6 360/1/6 362/1/6
f 353/2/6 361/2/6 363/2/6
f 361/2/6 362/2/6 363/2/6
f 363/2/6 362/2/6 364/2/6
f 353/2/6 363/2/6 365/2/6
f 363/1/6 364/1/6 365/1/6
f 365/1/6 364/1/6 366/1/6
f 353/2/6 365/2/6 367/2/6
f 365/2/6 366/2/6 367/2/6
f 367/2/6 366/2/6 368/2/6
f 353/2/6 367/2/6 369/2/6
f 367/1/6 368/1/6 369/1/6
f 369/1/6 368/1/6 370/1/6
f 353/2/6 369/2/6 371/2/6
f 369/2/6 370/2/6 371/2/6
f 371/2/6 370/2/6 372/2/6
f 373/2/6 374/2/6 375/2/6
f 375/2/6 374/2/6 376/2/6
f 376/2/6 374/2/6 377/2/6
f 375/1/6 376/1/6 378/1/6
f 376/3/6 377/3/6 379/3/6
f 378/1/6 376/1/6 379/1/6
f 375/1/6 378/1/6 380/1/6
f 378/3/6 379/3/6 381/3/6
f 380/1/6 378/1/6 381/1/6
f 379/3/6 377/3/6 382/3/6
f 381/3/6 379/3/6 382/3/6
f 380/2/6 381/2/6 383/2/6
f 381/2/6 382/2/6 383/2/6
f 383/2/6 382/2/6 384/2/6
f 384/2/6 382/2/6 385/2/6
f 383/1/6 384/1/6 386/1/6
f 384/3/6 385/3/6 387/3/6
f 386/1/6 384/1/6 387/1/6
f 383/1/6 386/1/6 388/1/6
f 386/3/6 387/3/6 389/3/6
f 388/1/6 386/1/6 389/1/6
f 387/3/6 385/3/6 390/3/6
f 389/3/6 387/3/6 390/3/6
f 388/2/6 389/2/6 391/2/6
f 389/2/6 390/2/6 391/2/6
f 391/2/6 390/2/6 392/2/6
f 392/2/6 390/2/6 393/2/6
f 391/1/6 392/1/6 394/1/6
f 392/3/6 393/3/6 395/3/6
f 394/1/6 392/1/6 395/1/6
f 391/1/6 394/1/6 396/1/6
f 394/3/6 395/3/6 397/3/6
f 396/1/6 394/1/6 397/1/6
f 395/3/6 393/3/6 398/3/6
f 397/3/6 395/3/6 398/3/6
f 396/2/6 397/2/6 399/2/6
f 397/2/6 398/2/6 399/2/6
f 399/2/6 398/2/6 400/2/6
f 400/2/6 398/2/6 401/2/6
f 399/1/6 400/1/6 402/1/6
f 400/3/6 401/3/6 403/3/6
f 402/1/6 400/1/6 403/1/6
f 399/1/6 402/1/6 404/1/6
f 402/3/6 403/3/6 405/3/6
f 404/1/6 402/1/6 405/1/6
f 403/3/6 401/3/6 406/3/6
f 405/3/6 403/3/6 406/3/6
f 404/2/6 405/2/6 407/2/6
f 405/2/6 406/2/6 407/2/6
f 407/2/6 406/2/6 408/2/6
f 409/2/6 410/2/6 411/2/6
f 411/2/6 410/2/6 412/2/6
f 411/1/6 412/1/6 413/1/6
f 409/2/6 411/2/6 414/2/6
f 411/1/6 413/1/6 414/1/6
f 414/1/6 413/1/6 415/1/6
f 409/2/6 414/2/6 416/2/6
f 414/2/6 415/2/6 416/2/6
f 416/2/6 415/2/6 417/2/6
f 416/1/6 417/1/6 418/1/6
f 409/2/6 416/2/6 419/2/6
f 416/1/6 418/1/6 419/1/6
f 419/1/6 418/1/6 420/1/6
f 409/2/6 419/2/6 421/2/6
f 419/2/6 420/2/6 421/2/6
f 421/2/6 420/2/6 422/2/6
f 421/1/6 422/1/6 423/1/6
f 409/2/6 421/2/6 424/2/6
f 421/1/6 423/1/6 424/1/6
f 424/1/6 423/1/6 425/1/6
f 409/2/6 424/2/6 426/2/6
f 424/2/6 425/2/6 426/2/6
f 426/2/6 425/2/6 427/2/6
f 426/1/6 427/1/6 428/1/6
f 409/2/6 426/2/6 429/2/6
f 426/1/6 428/1/6 429/1/6
f 429/1/6 428/1/6 430/1/6
f 409/2/6 429/2/6 431/2/6
f 429/2/6 430/2/6 431/2/6
f 431/2/6 430/2/6 432/2/6
f 433/2/6 434/2/6 435/2/6
f 435/2/6 434/2/6 436/2/6
f 436/2/6 434/2/6 437/2/6
f 435/1/6 436/1/6 438/1/6
f 436/3/6 437/3/6 439/3/6
f 438/1/6 436/1/6 439/1/6
f 438/3/6 439/3/6 440/3/6
f 437/2/6 434/2/6 441/2/6
f 440/3/6 439/3/6 441/3/6
f 439/3/6 437/3/6 441/3/6
f 440/2/6 441/2/6 442/2/6
f 442/2/6 441/2/6 443/2/6
f 441/2/6 434/2/6 444/2/6
f 443/2/6 441/2/6 444/2/6
f 442/1/6 443/1/6 445/1/6
f 443/3/6 444/3/6 446/3/6
f 445/1/6 443/1/6 446/1/6
f 445/3/6 446/3/6 447/3/6
f 444/2/6 434/2/6 448/2/6
f 447/3/6 446/3/6 448/3/6
f 446/3/6 444/3/6 448/3/6
f 447/2/6 448/2/6 449/2/6
f 449/2/6 448/2/6 450/2/6
f 448/2/6 434/2/6 451/2/6
f 450/2/6 448/2/6 451/2/6
f 449/1/6 450/1/6 452/1/6
f 450/3/6 451/3/6 453/3/6
f 452/1/6 450/1/6 453/1/6
f 452/3/6 453/3/6 454/3/6
f 451/2/6 434/2/6 455/2/6
f 454/3/6 453/3/6 455/3/6
f 453/3/6 451/3/6 455/3/6
f 454/2/6 455/2/6 456/2/6
f 456/2/6 455/2/6 457/2/6
f 455/2/6 434/2/6 458/2/6
f 457/2/6 455/2/6 458/2/6
f 456/1/6 457/1/6 459/1/6
f 457/3/6 458/3/6 460/3/6
f 459/1/6 457/1/6 460/1/6
f 459/3/6 460/3/6 461/3/6
f 458/2/6 434/2/6 462/2/6
f 461/3/6 460/3/6 462/3/6
f 460/3/6 458/3/6 462/3/6
f 461/2/6 462/2/6 463/2/6
f 462/2/6 434/2/6 464/2/6
f 463/2/6 462/2/6 464/2/6
